<mxfile host="app.diagrams.net" agent="Mozilla/5.0 (Windows NT 10.0; Win64; x64) AppleWebKit/537.36 (KHTML, like Gecko) Chrome/138.0.0.0 Safari/537.36" version="27.2.0">
  <diagram name="Page-1" id="lKp8Un6_BZNCfcJa298J">
    <mxGraphModel dx="1158" dy="593" grid="1" gridSize="10" guides="1" tooltips="1" connect="1" arrows="1" fold="1" page="1" pageScale="1" pageWidth="850" pageHeight="1100" math="0" shadow="0">
      <root>
        <mxCell id="0" />
        <mxCell id="1" parent="0" />
        <mxCell id="2" value="Entities" style="whiteSpace=wrap;strokeWidth=2;" parent="1" vertex="1">
          <mxGeometry x="468" y="8" width="417" height="255" as="geometry" />
        </mxCell>
        <mxCell id="3" value="Data Stores" style="whiteSpace=wrap;strokeWidth=2;" parent="1" vertex="1">
          <mxGeometry x="25" y="614" width="795" height="104" as="geometry" />
        </mxCell>
        <mxCell id="4" value="Processes" style="whiteSpace=wrap;strokeWidth=2;" parent="1" vertex="1">
          <mxGeometry x="8" y="159" width="440" height="382" as="geometry" />
        </mxCell>
        <mxCell id="5" value="Log Aggregator" style="whiteSpace=wrap;strokeWidth=2;fillColor=#f8cecc;strokeColor=#b85450;" parent="1" vertex="1">
          <mxGeometry x="105" y="184" width="167" height="54" as="geometry" />
        </mxCell>
        <mxCell id="6" value="Threat Detection" style="whiteSpace=wrap;strokeWidth=2;fillColor=#f8cecc;strokeColor=#b85450;" parent="1" vertex="1">
          <mxGeometry x="98" y="336" width="182" height="54" as="geometry" />
        </mxCell>
        <mxCell id="7" value="Incident Classification" style="whiteSpace=wrap;strokeWidth=2;fillColor=#f8cecc;strokeColor=#b85450;" parent="1" vertex="1">
          <mxGeometry x="194" y="462" width="218" height="54" as="geometry" />
        </mxCell>
        <mxCell id="8" value="Incident Records" style="whiteSpace=wrap;strokeWidth=2;fillColor=#ffe6cc;strokeColor=#d79b00;" parent="1" vertex="1">
          <mxGeometry x="214" y="639" width="179" height="54" as="geometry" />
        </mxCell>
        <mxCell id="9" value="Log Sources" style="whiteSpace=wrap;strokeWidth=2;fillColor=#d5e8d4;strokeColor=#82b366;" parent="1" vertex="1">
          <mxGeometry x="503" y="33" width="144" height="54" as="geometry" />
        </mxCell>
        <mxCell id="10" value="SOC Analyst" style="whiteSpace=wrap;strokeWidth=2;fillColor=#d5e8d4;strokeColor=#82b366;" parent="1" vertex="1">
          <mxGeometry x="701" y="184" width="144" height="54" as="geometry" />
        </mxCell>
        <mxCell id="11" value="SOC Manager" style="whiteSpace=wrap;strokeWidth=2;fillColor=#d5e8d4;strokeColor=#82b366;" parent="1" vertex="1">
          <mxGeometry x="697" y="33" width="153" height="54" as="geometry" />
        </mxCell>
        <mxCell id="12" value="Normalized Logs" style="curved=1;startArrow=none;endArrow=block;exitX=0.26;exitY=1.01;entryX=0.32;entryY=0;" parent="1" source="5" target="6" edge="1">
          <mxGeometry relative="1" as="geometry">
            <Array as="points">
              <mxPoint x="111" y="263" />
              <mxPoint x="111" y="300" />
            </Array>
          </mxGeometry>
        </mxCell>
        <mxCell id="13" value="Alerts" style="curved=1;startArrow=none;endArrow=block;exitX=0.77;exitY=1;entryX=0.5;entryY=0;" parent="1" source="6" target="7" edge="1">
          <mxGeometry relative="1" as="geometry">
            <Array as="points">
              <mxPoint x="303" y="426" />
            </Array>
          </mxGeometry>
        </mxCell>
        <mxCell id="14" value="Logs" style="curved=1;startArrow=none;endArrow=block;exitX=0.5;exitY=1;entryX=1;entryY=0.3;" parent="1" source="9" target="5" edge="1">
          <mxGeometry relative="1" as="geometry">
            <Array as="points">
              <mxPoint x="575" y="159" />
            </Array>
          </mxGeometry>
        </mxCell>
        <mxCell id="15" value="Normalized Logs" style="curved=1;startArrow=none;endArrow=block;exitX=0.96;exitY=1.01;entryX=0.84;entryY=0;" parent="1" source="5" target="6" edge="1">
          <mxGeometry relative="1" as="geometry">
            <Array as="points">
              <mxPoint x="335" y="263" />
              <mxPoint x="335" y="300" />
            </Array>
          </mxGeometry>
        </mxCell>
        <mxCell id="16" value="Threat Events" style="curved=1;startArrow=none;endArrow=block;exitX=0.31;exitY=1;entryX=0;entryY=0.05;" parent="1" source="6" target="8" edge="1">
          <mxGeometry relative="1" as="geometry">
            <Array as="points">
              <mxPoint x="107" y="426" />
              <mxPoint x="107" y="614" />
            </Array>
          </mxGeometry>
        </mxCell>
        <mxCell id="17" value="Classification" style="curved=1;startArrow=none;endArrow=block;exitX=0.5;exitY=1;entryX=0.5;entryY=-0.01;" parent="1" source="7" target="8" edge="1">
          <mxGeometry relative="1" as="geometry">
            <Array as="points" />
          </mxGeometry>
        </mxCell>
        <mxCell id="18" value="Investigate" style="curved=1;startArrow=none;endArrow=block;exitX=0.5;exitY=1.01;entryX=1;entryY=0.31;" parent="1" source="10" target="8" edge="1">
          <mxGeometry relative="1" as="geometry">
            <Array as="points">
              <mxPoint x="773" y="614" />
            </Array>
          </mxGeometry>
        </mxCell>
        <mxCell id="19" value="Oversee" style="curved=1;startArrow=none;endArrow=block;exitX=0.5;exitY=1;entryX=0.5;entryY=0.01;" parent="1" source="11" target="10" edge="1">
          <mxGeometry relative="1" as="geometry">
            <Array as="points" />
          </mxGeometry>
        </mxCell>
      </root>
    </mxGraphModel>
  </diagram>
</mxfile>
